{"title":"The Roaring Twenties(1939)MPEG-4[DaScubaDude]","uid":15474162,"size":1048981535,"categoryP":"video","categoryS":"movies","magnet":"?xt=urn:btih:2df87aafd18bd7516517fb25a66c1a4093bc648e&amp;dn=The+Roaring+Twenties%281939%29MPEG-4%5BDaScubaDude%5D&amp;tr=udp%3A%2F%2Ftracker.leechers-paradise.org%3A6969&amp;tr=udp%3A%2F%2Fzer0day.ch%3A1337&amp;tr=udp%3A%2F%2Fopen.demonii.com%3A1337&amp;tr=udp%3A%2F%2Ftracker.coppersurfer.tk%3A6969&amp;tr=udp%3A%2F%2Fexodus.desync.com%3A6969","seeders":2,"leechers":2,"uploader":"dascuba","files":1,"time":1470170362,"description":"The Roaring Twenties (1939)\r\nNot Rated | 1h 46min | Crime, Drama, Film-Noir | 23 October 1939 (USA)\r\nThree men attempt to make a living in Prohibitionist America after returning home from fighting together in World War I.\r\nDirector: Raoul Walsh\r\nWriters: Jerry Wald (screen play), Richard Macaulay (screen play) |\r\nStars: James Cagney, Humphrey Bogart, Priscilla Lane | \r\n\r\nGeneral\r\nComplete name                            : The Roaring TwentiesTHE_ROARING_TWENTIES_Title1.mp4\r\nFormat                                   : MPEG-4\r\nFormat profile                           : Base Media\r\nCodec ID                                 : isom (isom/iso2/avc1/mp41)\r\nFile size                                : 1 000 MiB\r\nDuration                                 : 1h 46mn\r\nOverall bit rate                         : 1 313 Kbps\r\nMovie name                               : THE_ROARING_TWENTIES\r\nGenre                                    : Crime\r\nWriting application                      : Lavf54.6.100\r\n\r\nVideo\r\nID                                       : 1\r\nFormat                                   : AVC\r\nFormat/Info                              : Advanced Video Codec\r\nFormat profile                           :   \r\nFormat settings, CABAC                   : No\r\nFormat settings, ReFrames                : 6 frames\r\nFormat settings, GOP                     : M=1, N=60\r\nCodec ID                                 : avc1\r\nCodec ID/Info                            : Advanced Video Coding\r\nDuration                                 : 1h 46mn\r\nBit rate                                 : 1 199 Kbps\r\nWidth                                    : 720 pixels\r\nHeight                                   : 540 pixels\r\nDisplay aspect ratio                     : 4:3\r\nFrame rate mode                          : Constant\r\nFrame rate                               : 29.970 (30000/1001) fps\r\nColor space                              : YUV\r\nChroma subsampling                       : 4:2:0\r\nBit depth                                : 8 bits\r\nScan type                                : Progressive\r\nBits/(Pixel*Frame)                       : 0.103\r\nStream size                              : 913 MiB (91%)\r\n\r\nAudio\r\nID                                       : 2\r\nFormat                                   : AAC\r\nFormat/Info                              : Advanced Audio Codec\r\nFormat profile                           : LC\r\nCodec ID                                 : 40\r\nDuration                                 : 1h 46mn\r\nBit rate mode                            : Constant\r\nBit rate                                 : 107 Kbps\r\nChannel(s)                               : 2 channels\r\nChannel(s)_Original                      : 1 channel\r\nChannel positions                        : Front: C\r\nSampling rate                            : 44.1 KHz\r\nFrame rate                               : 43.066 fps (1024 spf)\r\nCompression mode                         : Lossy\r\nStream size                              : 81.8 MiB (8%)\r\nDefault                                  : Yes\r\nAlternate group                          : 1","torrent":{"xt":"urn:btih:2df87aafd18bd7516517fb25a66c1a4093bc648e","amp;dn":"The+Roaring+Twenties%281939%29MPEG-4%5BDaScubaDude%5D","amp;tr":["udp%3A%2F%2Ftracker.leechers-paradise.org%3A6969","udp%3A%2F%2Fzer0day.ch%3A1337","udp%3A%2F%2Fopen.demonii.com%3A1337","udp%3A%2F%2Ftracker.coppersurfer.tk%3A6969","udp%3A%2F%2Fexodus.desync.com%3A6969"],"infoHash":"2df87aafd18bd7516517fb25a66c1a4093bc648e","infoHashBuffer":{"type":"Buffer","data":[45,248,122,175,209,139,215,81,101,23,251,37,166,108,26,64,147,188,100,142]},"announce":[],"urlList":[]}}